<?xml version="1.0" encoding="iso-8859-1"?>
<!-- Generator: Adobe Illustrator 19.0.0, SVG Export Plug-In . SVG Version: 6.00 Build 0)  -->
<svg version="1.1" id="Capa_1" xmlns="http://www.w3.org/2000/svg" xmlns:xlink="http://www.w3.org/1999/xlink" x="0px" y="0px"
	 viewBox="0 0 464 464" style="enable-background:new 0 0 464 464;" xml:space="preserve">
<g>
	<path style="fill:#00F2A9;" d="M152,104h160c8.84,0,16-7.16,16-16V56c0-8.84-7.16-16-16-16H152c-8.84,0-16,7.16-16,16v32
		C136,96.84,143.16,104,152,104z"/>
	<path style="fill:#00F2A9;" d="M424,264c-17.672,0-32,78.328-32,96s14.328,32,32,32s32-14.328,32-32S441.672,264,424,264z"/>
	<path style="fill:#00F2A9;" d="M40,392c17.672,0,32-14.328,32-32s-14.328-96-32-96S8,342.328,8,360S22.328,392,40,392z"/>
</g>
<g>
	<path style="fill:#322153;" d="M328,160h-24v-24c0-4.424-3.576-8-8-8h-32c-4.424,0-8,3.576-8,8v24h-24c-4.416,0-8,3.576-8,8v24
		c0,8.824,7.176,16,16,16h80c8.824,0,16-7.176,16-16v-24C336,163.576,332.424,160,328,160z M272,144h16v16h-16V144z M320,192h-80
		v-16h24h32h24V192z"/>
	<path style="fill:#322153;" d="M328,256h-24v-24c0-4.424-3.576-8-8-8h-32c-4.424,0-8,3.576-8,8v24h-24c-4.416,0-8,3.576-8,8v24
		c0,8.824,7.176,16,16,16h80c8.824,0,16-7.176,16-16v-24C336,259.576,332.424,256,328,256z M272,240h16v16h-16V240z M320,288h-80
		v-16h24h32h24V288z"/>
	<path style="fill:#322153;" d="M464,328c0-7.104-11.136-104-40-104s-40,96.896-40,104c0,19.312,13.768,35.472,32,39.192V448h-48
		V120c0-13.232-10.768-24-24-24h-40V80h8c13.232,0,24-10.768,24-24V24c0-13.232-10.768-24-24-24H152c-13.232,0-24,10.768-24,24v32
		c0,13.232,10.768,24,24,24h8v16h-40c-13.232,0-24,10.768-24,24v328H48v-80.808c18.232-3.72,32-19.872,32-39.192
		c0-7.104-11.136-104-40-104S0,320.896,0,328c0,19.312,13.768,35.472,32,39.192V448H8c-4.416,0-8,3.576-8,8s3.584,8,8,8h96h96h32h32
		h96h96c4.424,0,8-3.576,8-8s-3.576-8-8-8h-24v-80.808C450.232,363.472,464,347.312,464,328z M16,328
		c0-22.016,14.248-81.544,24-87.792c9.752,6.24,24,65.776,24,87.792c0,13.232-10.768,24-24,24S16,341.232,16,328z M144,56V24
		c0-4.416,3.592-8,8-8h160c4.416,0,8,3.584,8,8v32c0,4.416-3.584,8-8,8H152C147.592,64,144,60.416,144,56z M176,80h112v16H176V80z
		 M224,448h-16v-48h16V448z M240,448v-48h16v48H240z M336,448v-88c0-4.424-3.576-8-8-8s-8,3.576-8,8v88h-48v-56c0-4.424-3.576-8-8-8
		h-32h-32c-4.416,0-8,3.576-8,8v56h-48v-88c0-4.424-3.584-8-8-8s-8,3.576-8,8v88h-16V120c0-4.416,3.592-8,8-8h224
		c4.416,0,8,3.584,8,8v328H336z M400,328c0-22.016,14.24-81.544,24-87.792c9.76,6.24,24,65.776,24,87.792c0,13.232-10.768,24-24,24
		S400,341.232,400,328z"/>
	<path style="fill:#322153;" d="M200,128h-32c-4.416,0-8,3.576-8,8v24h-24c-4.416,0-8,3.576-8,8v24c0,8.824,7.176,16,16,16h48
		c8.824,0,16-7.176,16-16v-24v-32C208,131.576,204.416,128,200,128z M176,144h16v16h-16V144z M192,192h-48v-16h24h24V192z"/>
	<path style="fill:#322153;" d="M200,224h-32c-4.416,0-8,3.576-8,8v24h-24c-4.416,0-8,3.576-8,8v24c0,8.824,7.176,16,16,16h48
		c8.824,0,16-7.176,16-16v-24v-32C208,227.576,204.416,224,200,224z M176,240h16v16h-16V240z M192,288h-48v-16h24h24V288z"/>
</g>
<g>
</g>
<g>
</g>
<g>
</g>
<g>
</g>
<g>
</g>
<g>
</g>
<g>
</g>
<g>
</g>
<g>
</g>
<g>
</g>
<g>
</g>
<g>
</g>
<g>
</g>
<g>
</g>
<g>
</g>
</svg>
